<svg xmlns="http://www.w3.org/2000/svg" xmlns:xlink="http://www.w3.org/1999/xlink" viewBox="0 0 260 293"><defs><style>.cls-1{fill:url(#Unbenannter_Verlauf_5);}.cls-2{fill:url(#Unbenannter_Verlauf_5-2);}.cls-3{fill:url(#Unbenannter_Verlauf_5-3);}.cls-4{fill:url(#Unbenannter_Verlauf_8);}.cls-5{fill:url(#Unbenannter_Verlauf_8-2);}.cls-6{fill:url(#Unbenannter_Verlauf_8-3);}.cls-7{fill:url(#Unbenannter_Verlauf_27);}.cls-8{fill:url(#Unbenannter_Verlauf_8-4);}.cls-9{fill:url(#Unbenannter_Verlauf_17);}</style><linearGradient id="Unbenannter_Verlauf_5" x1="65.98" y1="211.16" x2="28.77" y2="127.92" gradientUnits="userSpaceOnUse"><stop offset="0" stop-color="#fff"/><stop offset="0.77"/></linearGradient><linearGradient id="Unbenannter_Verlauf_5-2" x1="35.61" y1="96.71" x2="69.79" y2="131.49" xlink:href="#Unbenannter_Verlauf_5"/><linearGradient id="Unbenannter_Verlauf_5-3" x1="47.08" y1="75.36" x2="55.06" y2="77.52" xlink:href="#Unbenannter_Verlauf_5"/><linearGradient id="Unbenannter_Verlauf_8" x1="150.61" y1="132.35" x2="184.79" y2="146.02" gradientUnits="userSpaceOnUse"><stop offset="0" stop-color="red"/><stop offset="1"/></linearGradient><linearGradient id="Unbenannter_Verlauf_8-2" x1="66.1" y1="93.71" x2="94.42" y2="127.92" gradientTransform="matrix(0.02, -1, 1, 0.02, 29.57, 201.18)" xlink:href="#Unbenannter_Verlauf_8"/><linearGradient id="Unbenannter_Verlauf_8-3" x1="-165.92" y1="4.74" x2="-137.59" y2="38.95" gradientTransform="matrix(-0.68, 0.73, 0.73, 0.68, 21.35, 221.43)" xlink:href="#Unbenannter_Verlauf_8"/><linearGradient id="Unbenannter_Verlauf_27" x1="194.33" y1="95.05" x2="170.17" y2="45.6" gradientUnits="userSpaceOnUse"><stop offset="0" stop-color="#c7b299"/><stop offset="1" stop-color="#fff"/></linearGradient><linearGradient id="Unbenannter_Verlauf_8-4" x1="132.35" y1="139.37" x2="246.11" y2="276.79" xlink:href="#Unbenannter_Verlauf_8"/><linearGradient id="Unbenannter_Verlauf_17" x1="167.89" y1="26.8" x2="210.49" y2="74.42" gradientUnits="userSpaceOnUse"><stop offset="0" stop-color="#603813"/><stop offset="1" stop-color="#42210b"/></linearGradient></defs><title>no results</title><g id="Ebene_2" data-name="Ebene 2"><g id="Ebene_1-2" data-name="Ebene 1"><path class="cls-1" d="M0,201.5l53-24s7-52,30-55-48,0-48,0L19.22,146.61Z"/><path class="cls-2" d="M0,201.5l18-46c7.88-26.22,29.74-12.09,54,9l81-36-36-90-54,27,18,36C37.7,89.85,17.59,142.27,0,201.5Z"/><polygon class="cls-3" points="109 148 153 128.5 117 38.5 63 65.5 81 101.5 109 148"/><path class="cls-4" d="M244.05,138.84c-37,75.63-49.88,61.48-90.79-1.44-8.5-11.88,6.14-22.35,14.64-10.47,35.48,39.79,38.39,45.07,53.12-4.81Z"/><path class="cls-5" d="M153.42,123.25c-28.55-5.61-43.94-3.53-51.28,3.26,14.58,5.24,30.6,5.18,47.75.94,18.27,5.91,19.16,3,20.51.41C174.15,114,157.17,109.4,153.42,123.25Zm13.76-.2a4.75,4.75,0,1,1-4.65-4.83A4.75,4.75,0,0,1,167.18,123.05Z"/><path class="cls-6" d="M164.67,142c.87-2.83,2.23-5.5-15-14-9.34-15-20.79-26.21-34.88-32.62.52,10,10.1,22.2,34.48,38.09C142.32,146,157.7,154.52,164.67,142Zm-12.37,1.42a4.74,4.74,0,1,1,6.7-.22A4.74,4.74,0,0,1,152.3,143.39Z"/><path class="cls-7" d="M166.58,54.16S174.5,60,174.5,67s-4,7-5,12,5,3,5,3,2,5,1,8,0,12,8,14,17-36,17-36Z"/><path class="cls-8" d="M71,138.5c0-14.61,18-14.61,18,0,5.71,53,5,59,46,27,10.74-5.29,20.95-26.15,34-43.39a33.11,33.11,0,0,1,20.89-12.63l41.12-7c19.17,16.47,27.45,39.72,20.13,72.67a54.43,54.43,0,0,0-1,18.26L260,276.5C206.5,266,163.75,264.28,129,293c18.43-54.86,24.14-74.46,15-100.5C69.93,232.5,67.66,213.47,71,138.5Z"/><path class="cls-9" d="M230.64,30.93c17,66.69,0,78,0,78s-51.09,34.06-48.25-2.84S173.88,59.31,164,52.21C146.92-1.15,213.61-22.43,230.64,30.93Z"/></g></g></svg>